<svg id="visual" viewBox="0 0 900 600" width="900" height="600" xmlns="http://www.w3.org/2000/svg" xmlns:xlink="http://www.w3.org/1999/xlink" version="1.1"><rect x="0" y="0" width="900" height="600" fill="#0D1017"></rect><defs><linearGradient id="grad1_0" x1="33.3%" y1="0%" x2="100%" y2="100%"><stop offset="20%" stop-color="#0d1017" stop-opacity="1"></stop><stop offset="80%" stop-color="#0d1017" stop-opacity="1"></stop></linearGradient></defs><defs><linearGradient id="grad2_0" x1="0%" y1="0%" x2="66.7%" y2="100%"><stop offset="20%" stop-color="#0d1017" stop-opacity="1"></stop><stop offset="80%" stop-color="#0d1017" stop-opacity="1"></stop></linearGradient></defs><g transform="translate(900, 0)"><path d="M0 324.5C-39.8 306.9 -79.7 289.4 -111 267.9C-142.3 246.5 -165 221.1 -198.7 198.7C-232.4 176.3 -277 156.8 -299.8 124.2C-322.6 91.6 -323.5 45.8 -324.5 0L0 0Z" fill="#206FEB"></path></g><g transform="translate(0, 600)"><path d="M0 -324.5C36.1 -299.4 72.1 -274.3 106 -255.9C139.9 -237.5 171.5 -225.9 206.5 -206.5C241.4 -187.1 279.6 -159.9 299.8 -124.2C320 -88.5 322.3 -44.2 324.5 0L0 0Z" fill="#206FEB"></path></g></svg>