<svg id="visual" viewBox="0 0 900 600" width="900" height="600" xmlns="http://www.w3.org/2000/svg" xmlns:xlink="http://www.w3.org/1999/xlink" version="1.1"><path d="M0 510L21.5 512.2C43 514.3 86 518.7 128.8 514.5C171.7 510.3 214.3 497.7 257.2 494C300 490.3 343 495.7 385.8 498.5C428.7 501.3 471.3 501.7 514.2 506C557 510.3 600 518.7 642.8 521.8C685.7 525 728.3 523 771.2 515.7C814 508.3 857 495.7 878.5 489.3L900 483L900 601L878.5 601C857 601 814 601 771.2 601C728.3 601 685.7 601 642.8 601C600 601 557 601 514.2 601C471.3 601 428.7 601 385.8 601C343 601 300 601 257.2 601C214.3 601 171.7 601 128.8 601C86 601 43 601 21.5 601L0 601Z" fill="#206FEB" stroke-linecap="round" stroke-linejoin="miter"></path></svg>